<?xml version="1.0" encoding="UTF-8" standalone="no"?>
<!DOCTYPE svg PUBLIC "-//W3C//DTD SVG 1.1//EN"
 "http://www.w3.org/Graphics/SVG/1.1/DTD/svg11.dtd">
<!-- Generated by graphviz version 2.47.3 (20210619.1520)
 -->
<!-- Title: dependencies Pages: 1 -->
<svg width="793pt" height="247pt"
 viewBox="0.00 0.00 793.00 246.80" xmlns="http://www.w3.org/2000/svg" xmlns:xlink="http://www.w3.org/1999/xlink">
<g id="graph0" class="graph" transform="scale(1 1) rotate(0) translate(4 242.8)">
<title>dependencies</title>
<polygon fill="white" stroke="transparent" points="-4,4 -4,-242.8 789,-242.8 789,4 -4,4"/>
<text text-anchor="middle" x="392.5" y="-8.2" font-family="sans-serif" font-size="14.00">dependencies</text>
<g id="clust1" class="cluster">
<title>cluster_CoreModule</title>
<polygon fill="none" stroke="black" stroke-dasharray="1,5" points="8,-32.8 8,-230.8 777,-230.8 777,-32.8 8,-32.8"/>
</g>
<g id="clust6" class="cluster">
<title>cluster_CoreModule_imports</title>
<polygon fill="none" stroke="black" points="532,-40.8 532,-92.8 638,-92.8 638,-40.8 532,-40.8"/>
</g>
<g id="clust2" class="cluster">
<title>cluster_CoreModule_declarations</title>
<polygon fill="none" stroke="black" points="128,-40.8 128,-92.8 524,-92.8 524,-40.8 128,-40.8"/>
</g>
<g id="clust7" class="cluster">
<title>cluster_CoreModule_exports</title>
<polygon fill="none" stroke="black" points="16,-170.8 16,-222.8 769,-222.8 769,-170.8 16,-170.8"/>
</g>
<!-- FooterComponent -->
<g id="node1" class="node">
<title>FooterComponent</title>
<polygon fill="#ffffb3" stroke="black" points="515.88,-84.8 398.12,-84.8 398.12,-48.8 515.88,-48.8 515.88,-84.8"/>
<text text-anchor="middle" x="457" y="-62.6" font-family="Times,serif" font-size="14.00">FooterComponent</text>
</g>
<!-- CoreModule -->
<g id="node4" class="node">
<title>CoreModule</title>
<polygon fill="#8dd3c7" stroke="black" points="415.26,-149.8 412.26,-153.8 391.26,-153.8 388.26,-149.8 328.74,-149.8 328.74,-113.8 415.26,-113.8 415.26,-149.8"/>
<text text-anchor="middle" x="372" y="-127.6" font-family="Times,serif" font-size="14.00">CoreModule</text>
</g>
<!-- FooterComponent&#45;&gt;CoreModule -->
<g id="edge1" class="edge">
<title>FooterComponent&#45;&gt;CoreModule</title>
<path fill="none" stroke="black" d="M406.72,-84.91C406.72,-84.91 406.72,-103.79 406.72,-103.79"/>
<polygon fill="black" stroke="black" points="403.22,-103.79 406.72,-113.79 410.22,-103.79 403.22,-103.79"/>
</g>
<!-- HeaderComponent -->
<g id="node2" class="node">
<title>HeaderComponent</title>
<polygon fill="#ffffb3" stroke="black" points="379.74,-84.8 258.26,-84.8 258.26,-48.8 379.74,-48.8 379.74,-84.8"/>
<text text-anchor="middle" x="319" y="-62.6" font-family="Times,serif" font-size="14.00">HeaderComponent</text>
</g>
<!-- HeaderComponent&#45;&gt;CoreModule -->
<g id="edge2" class="edge">
<title>HeaderComponent&#45;&gt;CoreModule</title>
<path fill="none" stroke="black" d="M354.25,-84.91C354.25,-84.91 354.25,-103.79 354.25,-103.79"/>
<polygon fill="black" stroke="black" points="350.75,-103.79 354.25,-113.79 357.75,-103.79 350.75,-103.79"/>
</g>
<!-- NavComponent -->
<g id="node3" class="node">
<title>NavComponent</title>
<polygon fill="#ffffb3" stroke="black" points="240.15,-84.8 135.85,-84.8 135.85,-48.8 240.15,-48.8 240.15,-84.8"/>
<text text-anchor="middle" x="188" y="-62.6" font-family="Times,serif" font-size="14.00">NavComponent</text>
</g>
<!-- NavComponent&#45;&gt;CoreModule -->
<g id="edge3" class="edge">
<title>NavComponent&#45;&gt;CoreModule</title>
<path fill="none" stroke="black" d="M205.44,-84.83C205.44,-101.2 205.44,-122.8 205.44,-122.8 205.44,-122.8 318.67,-122.8 318.67,-122.8"/>
<polygon fill="black" stroke="black" points="318.67,-126.3 328.67,-122.8 318.67,-119.3 318.67,-126.3"/>
</g>
<!-- FooterComponent  -->
<g id="node6" class="node">
<title>FooterComponent </title>
<polygon fill="#fb8072" stroke="black" points="760.88,-214.8 639.12,-214.8 639.12,-178.8 760.88,-178.8 760.88,-214.8"/>
<text text-anchor="middle" x="700" y="-192.6" font-family="Times,serif" font-size="14.00">FooterComponent </text>
</g>
<!-- CoreModule&#45;&gt;FooterComponent  -->
<g id="edge5" class="edge">
<title>CoreModule&#45;&gt;FooterComponent </title>
<path fill="none" stroke="black" stroke-dasharray="5,2" d="M415.56,-131.8C504.78,-131.8 700,-131.8 700,-131.8 700,-131.8 700,-168.69 700,-168.69"/>
<polygon fill="black" stroke="black" points="696.5,-168.69 700,-178.69 703.5,-168.69 696.5,-168.69"/>
</g>
<!-- HeaderComponent  -->
<g id="node7" class="node">
<title>HeaderComponent </title>
<polygon fill="#fb8072" stroke="black" points="621.74,-214.8 496.26,-214.8 496.26,-178.8 621.74,-178.8 621.74,-214.8"/>
<text text-anchor="middle" x="559" y="-192.6" font-family="Times,serif" font-size="14.00">HeaderComponent </text>
</g>
<!-- CoreModule&#45;&gt;HeaderComponent  -->
<g id="edge6" class="edge">
<title>CoreModule&#45;&gt;HeaderComponent </title>
<path fill="none" stroke="black" stroke-dasharray="5,2" d="M415.56,-140.8C454.73,-140.8 506.16,-140.8 506.16,-140.8 506.16,-140.8 506.16,-168.77 506.16,-168.77"/>
<polygon fill="black" stroke="black" points="502.66,-168.77 506.16,-178.77 509.66,-168.77 502.66,-168.77"/>
</g>
<!-- IconsModule  -->
<g id="node8" class="node">
<title>IconsModule </title>
<polygon fill="#fb8072" stroke="black" points="478.87,-214.8 385.13,-214.8 385.13,-178.8 478.87,-178.8 478.87,-214.8"/>
<text text-anchor="middle" x="432" y="-192.6" font-family="Times,serif" font-size="14.00">IconsModule </text>
</g>
<!-- CoreModule&#45;&gt;IconsModule  -->
<g id="edge7" class="edge">
<title>CoreModule&#45;&gt;IconsModule </title>
<path fill="none" stroke="black" stroke-dasharray="5,2" d="M400.35,-149.91C400.35,-149.91 400.35,-168.79 400.35,-168.79"/>
<polygon fill="black" stroke="black" points="396.85,-168.79 400.35,-178.79 403.85,-168.79 396.85,-168.79"/>
</g>
<!-- NavComponent  -->
<g id="node9" class="node">
<title>NavComponent </title>
<polygon fill="#fb8072" stroke="black" points="367.15,-214.8 258.85,-214.8 258.85,-178.8 367.15,-178.8 367.15,-214.8"/>
<text text-anchor="middle" x="313" y="-192.6" font-family="Times,serif" font-size="14.00">NavComponent </text>
</g>
<!-- CoreModule&#45;&gt;NavComponent  -->
<g id="edge8" class="edge">
<title>CoreModule&#45;&gt;NavComponent </title>
<path fill="none" stroke="black" stroke-dasharray="5,2" d="M347.85,-149.91C347.85,-149.91 347.85,-168.79 347.85,-168.79"/>
<polygon fill="black" stroke="black" points="344.35,-168.79 347.85,-178.79 351.35,-168.79 344.35,-168.79"/>
</g>
<!-- TemplatesModule  -->
<g id="node10" class="node">
<title>TemplatesModule </title>
<polygon fill="#fb8072" stroke="black" points="240.86,-214.8 119.14,-214.8 119.14,-178.8 240.86,-178.8 240.86,-214.8"/>
<text text-anchor="middle" x="180" y="-192.6" font-family="Times,serif" font-size="14.00">TemplatesModule </text>
</g>
<!-- CoreModule&#45;&gt;TemplatesModule  -->
<g id="edge9" class="edge">
<title>CoreModule&#45;&gt;TemplatesModule </title>
<path fill="none" stroke="black" stroke-dasharray="5,2" d="M328.29,-140.8C269.04,-140.8 170.56,-140.8 170.56,-140.8 170.56,-140.8 170.56,-168.77 170.56,-168.77"/>
<polygon fill="black" stroke="black" points="167.06,-168.77 170.56,-178.77 174.06,-168.77 167.06,-168.77"/>
</g>
<!-- UiModule  -->
<g id="node11" class="node">
<title>UiModule </title>
<polygon fill="#fb8072" stroke="black" points="101.55,-214.8 24.45,-214.8 24.45,-178.8 101.55,-178.8 101.55,-214.8"/>
<text text-anchor="middle" x="63" y="-192.6" font-family="Times,serif" font-size="14.00">UiModule </text>
</g>
<!-- CoreModule&#45;&gt;UiModule  -->
<g id="edge10" class="edge">
<title>CoreModule&#45;&gt;UiModule </title>
<path fill="none" stroke="black" stroke-dasharray="5,2" d="M328.71,-131.8C243.67,-131.8 63,-131.8 63,-131.8 63,-131.8 63,-168.69 63,-168.69"/>
<polygon fill="black" stroke="black" points="59.5,-168.69 63,-178.69 66.5,-168.69 59.5,-168.69"/>
</g>
<!-- IconsModule -->
<g id="node5" class="node">
<title>IconsModule</title>
<polygon fill="#8dd3c7" stroke="black" points="629.87,-84.8 626.87,-88.8 605.87,-88.8 602.87,-84.8 540.13,-84.8 540.13,-48.8 629.87,-48.8 629.87,-84.8"/>
<text text-anchor="middle" x="585" y="-62.6" font-family="Times,serif" font-size="14.00">IconsModule</text>
</g>
<!-- IconsModule&#45;&gt;CoreModule -->
<g id="edge4" class="edge">
<title>IconsModule&#45;&gt;CoreModule</title>
<path fill="none" stroke="black" d="M580.84,-84.83C580.84,-101.2 580.84,-122.8 580.84,-122.8 580.84,-122.8 425.27,-122.8 425.27,-122.8"/>
<polygon fill="black" stroke="black" points="425.27,-119.3 415.27,-122.8 425.27,-126.3 425.27,-119.3"/>
</g>
</g>
</svg>
