<?xml version="1.0" encoding="UTF-8" standalone="no"?>
<!DOCTYPE svg PUBLIC "-//W3C//DTD SVG 1.1//EN"
 "http://www.w3.org/Graphics/SVG/1.1/DTD/svg11.dtd">
<!-- Generated by graphviz version 2.47.3 (20210619.1520)
 -->
<!-- Title: dependencies Pages: 1 -->
<svg width="462pt" height="247pt"
 viewBox="0.00 0.00 462.00 246.80" xmlns="http://www.w3.org/2000/svg" xmlns:xlink="http://www.w3.org/1999/xlink">
<g id="graph0" class="graph" transform="scale(1 1) rotate(0) translate(4 242.8)">
<title>dependencies</title>
<polygon fill="white" stroke="transparent" points="-4,4 -4,-242.8 458,-242.8 458,4 -4,4"/>
<text text-anchor="middle" x="227" y="-8.2" font-family="sans-serif" font-size="14.00">dependencies</text>
<g id="clust1" class="cluster">
<title>cluster_TemplatesModule</title>
<polygon fill="none" stroke="black" stroke-dasharray="1,5" points="8,-32.8 8,-230.8 446,-230.8 446,-32.8 8,-32.8"/>
</g>
<g id="clust2" class="cluster">
<title>cluster_TemplatesModule_declarations</title>
<polygon fill="none" stroke="black" points="19,-40.8 19,-92.8 435,-92.8 435,-40.8 19,-40.8"/>
</g>
<g id="clust6" class="cluster">
<title>cluster_TemplatesModule_exports</title>
<polygon fill="none" stroke="black" points="16,-170.8 16,-222.8 438,-222.8 438,-170.8 16,-170.8"/>
</g>
<!-- TemplateContainerComponent -->
<g id="node1" class="node">
<title>TemplateContainerComponent</title>
<polygon fill="#ffffb3" stroke="black" points="426.91,-84.8 237.09,-84.8 237.09,-48.8 426.91,-48.8 426.91,-84.8"/>
<text text-anchor="middle" x="332" y="-62.6" font-family="Times,serif" font-size="14.00">TemplateContainerComponent</text>
</g>
<!-- TemplatesModule -->
<g id="node3" class="node">
<title>TemplatesModule</title>
<polygon fill="#8dd3c7" stroke="black" points="182.86,-149.8 179.86,-153.8 158.86,-153.8 155.86,-149.8 65.14,-149.8 65.14,-113.8 182.86,-113.8 182.86,-149.8"/>
<text text-anchor="middle" x="124" y="-127.6" font-family="Times,serif" font-size="14.00">TemplatesModule</text>
</g>
<!-- TemplateContainerComponent&#45;&gt;TemplatesModule -->
<g id="edge1" class="edge">
<title>TemplateContainerComponent&#45;&gt;TemplatesModule</title>
<path fill="none" stroke="black" d="M363.65,-84.82C363.65,-102.17 363.65,-125.8 363.65,-125.8 363.65,-125.8 192.93,-125.8 192.93,-125.8"/>
<polygon fill="black" stroke="black" points="192.93,-122.3 182.93,-125.8 192.93,-129.3 192.93,-122.3"/>
</g>
<!-- TemplateFullWidthComponent -->
<g id="node2" class="node">
<title>TemplateFullWidthComponent</title>
<polygon fill="#ffffb3" stroke="black" points="218.76,-84.8 27.24,-84.8 27.24,-48.8 218.76,-48.8 218.76,-84.8"/>
<text text-anchor="middle" x="123" y="-62.6" font-family="Times,serif" font-size="14.00">TemplateFullWidthComponent</text>
</g>
<!-- TemplateFullWidthComponent&#45;&gt;TemplatesModule -->
<g id="edge2" class="edge">
<title>TemplateFullWidthComponent&#45;&gt;TemplatesModule</title>
<path fill="none" stroke="black" d="M124,-84.91C124,-84.91 124,-103.79 124,-103.79"/>
<polygon fill="black" stroke="black" points="120.5,-103.79 124,-113.79 127.5,-103.79 120.5,-103.79"/>
</g>
<!-- TemplateContainerComponent  -->
<g id="node4" class="node">
<title>TemplateContainerComponent </title>
<polygon fill="#fb8072" stroke="black" points="430.41,-214.8 237.59,-214.8 237.59,-178.8 430.41,-178.8 430.41,-214.8"/>
<text text-anchor="middle" x="334" y="-192.6" font-family="Times,serif" font-size="14.00">TemplateContainerComponent </text>
</g>
<!-- TemplatesModule&#45;&gt;TemplateContainerComponent  -->
<g id="edge3" class="edge">
<title>TemplatesModule&#45;&gt;TemplateContainerComponent </title>
<path fill="none" stroke="black" stroke-dasharray="5,2" d="M183.3,-137.8C234.6,-137.8 300.6,-137.8 300.6,-137.8 300.6,-137.8 300.6,-168.78 300.6,-168.78"/>
<polygon fill="black" stroke="black" points="297.1,-168.78 300.6,-178.78 304.1,-168.78 297.1,-168.78"/>
</g>
<!-- TemplateFullWidthComponent  -->
<g id="node5" class="node">
<title>TemplateFullWidthComponent </title>
<polygon fill="#fb8072" stroke="black" points="219.76,-214.8 24.24,-214.8 24.24,-178.8 219.76,-178.8 219.76,-214.8"/>
<text text-anchor="middle" x="122" y="-192.6" font-family="Times,serif" font-size="14.00">TemplateFullWidthComponent </text>
</g>
<!-- TemplatesModule&#45;&gt;TemplateFullWidthComponent  -->
<g id="edge4" class="edge">
<title>TemplatesModule&#45;&gt;TemplateFullWidthComponent </title>
<path fill="none" stroke="black" stroke-dasharray="5,2" d="M124,-149.91C124,-149.91 124,-168.79 124,-168.79"/>
<polygon fill="black" stroke="black" points="120.5,-168.79 124,-178.79 127.5,-168.79 120.5,-168.79"/>
</g>
</g>
</svg>
