<?xml version="1.0" encoding="UTF-8" standalone="no"?>
<!DOCTYPE svg PUBLIC "-//W3C//DTD SVG 1.1//EN"
 "http://www.w3.org/Graphics/SVG/1.1/DTD/svg11.dtd">
<!-- Generated by graphviz version 2.47.3 (20210619.1520)
 -->
<!-- Title: dependencies Pages: 1 -->
<svg width="278pt" height="247pt"
 viewBox="0.00 0.00 278.00 246.80" xmlns="http://www.w3.org/2000/svg" xmlns:xlink="http://www.w3.org/1999/xlink">
<g id="graph0" class="graph" transform="scale(1 1) rotate(0) translate(4 242.8)">
<title>dependencies</title>
<polygon fill="white" stroke="transparent" points="-4,4 -4,-242.8 274,-242.8 274,4 -4,4"/>
<text text-anchor="middle" x="135" y="-8.2" font-family="sans-serif" font-size="14.00">dependencies</text>
<g id="clust1" class="cluster">
<title>cluster_UiModule</title>
<polygon fill="none" stroke="black" stroke-dasharray="1,5" points="8,-32.8 8,-230.8 262,-230.8 262,-32.8 8,-32.8"/>
</g>
<g id="clust6" class="cluster">
<title>cluster_UiModule_exports</title>
<polygon fill="none" stroke="black" points="16,-170.8 16,-222.8 254,-222.8 254,-170.8 16,-170.8"/>
</g>
<g id="clust2" class="cluster">
<title>cluster_UiModule_declarations</title>
<polygon fill="none" stroke="black" points="19,-40.8 19,-92.8 251,-92.8 251,-40.8 19,-40.8"/>
</g>
<!-- Ui2Component -->
<g id="node1" class="node">
<title>Ui2Component</title>
<polygon fill="#ffffb3" stroke="black" points="243.33,-84.8 140.67,-84.8 140.67,-48.8 243.33,-48.8 243.33,-84.8"/>
<text text-anchor="middle" x="192" y="-62.6" font-family="Times,serif" font-size="14.00">Ui2Component</text>
</g>
<!-- UiModule -->
<g id="node3" class="node">
<title>UiModule</title>
<polygon fill="#8dd3c7" stroke="black" points="111.55,-149.8 108.55,-153.8 87.55,-153.8 84.55,-149.8 38.45,-149.8 38.45,-113.8 111.55,-113.8 111.55,-149.8"/>
<text text-anchor="middle" x="75" y="-127.6" font-family="Times,serif" font-size="14.00">UiModule</text>
</g>
<!-- Ui2Component&#45;&gt;UiModule -->
<g id="edge1" class="edge">
<title>Ui2Component&#45;&gt;UiModule</title>
<path fill="none" stroke="black" d="M209.05,-84.82C209.05,-102.17 209.05,-125.8 209.05,-125.8 209.05,-125.8 121.63,-125.8 121.63,-125.8"/>
<polygon fill="black" stroke="black" points="121.63,-122.3 111.63,-125.8 121.63,-129.3 121.63,-122.3"/>
</g>
<!-- UiComponent -->
<g id="node2" class="node">
<title>UiComponent</title>
<polygon fill="#ffffb3" stroke="black" points="122.83,-84.8 27.17,-84.8 27.17,-48.8 122.83,-48.8 122.83,-84.8"/>
<text text-anchor="middle" x="75" y="-62.6" font-family="Times,serif" font-size="14.00">UiComponent</text>
</g>
<!-- UiComponent&#45;&gt;UiModule -->
<g id="edge2" class="edge">
<title>UiComponent&#45;&gt;UiModule</title>
<path fill="none" stroke="black" d="M75,-84.91C75,-84.91 75,-103.79 75,-103.79"/>
<polygon fill="black" stroke="black" points="71.5,-103.79 75,-113.79 78.5,-103.79 71.5,-103.79"/>
</g>
<!-- Ui2Component  -->
<g id="node4" class="node">
<title>Ui2Component </title>
<polygon fill="#fb8072" stroke="black" points="245.83,-214.8 140.17,-214.8 140.17,-178.8 245.83,-178.8 245.83,-214.8"/>
<text text-anchor="middle" x="193" y="-192.6" font-family="Times,serif" font-size="14.00">Ui2Component </text>
</g>
<!-- UiModule&#45;&gt;Ui2Component  -->
<g id="edge3" class="edge">
<title>UiModule&#45;&gt;Ui2Component </title>
<path fill="none" stroke="black" stroke-dasharray="5,2" d="M111.65,-137.8C140.17,-137.8 174.95,-137.8 174.95,-137.8 174.95,-137.8 174.95,-168.78 174.95,-168.78"/>
<polygon fill="black" stroke="black" points="171.45,-168.78 174.95,-178.78 178.45,-168.78 171.45,-168.78"/>
</g>
<!-- UiComponent  -->
<g id="node5" class="node">
<title>UiComponent </title>
<polygon fill="#fb8072" stroke="black" points="122.33,-214.8 23.67,-214.8 23.67,-178.8 122.33,-178.8 122.33,-214.8"/>
<text text-anchor="middle" x="73" y="-192.6" font-family="Times,serif" font-size="14.00">UiComponent </text>
</g>
<!-- UiModule&#45;&gt;UiComponent  -->
<g id="edge4" class="edge">
<title>UiModule&#45;&gt;UiComponent </title>
<path fill="none" stroke="black" stroke-dasharray="5,2" d="M75,-149.91C75,-149.91 75,-168.79 75,-168.79"/>
<polygon fill="black" stroke="black" points="71.5,-168.79 75,-178.79 78.5,-168.79 71.5,-168.79"/>
</g>
</g>
</svg>
